<?xml version="1.0" encoding="UTF-8" standalone="no"?>
<!-- Created with Inkscape (http://www.inkscape.org/) -->

<svg
   xmlns:ns0="http://www.iki.fi/pav/software/textext/"
   xmlns:dc="http://purl.org/dc/elements/1.1/"
   xmlns:cc="http://creativecommons.org/ns#"
   xmlns:rdf="http://www.w3.org/1999/02/22-rdf-syntax-ns#"
   xmlns:svg="http://www.w3.org/2000/svg"
   xmlns="http://www.w3.org/2000/svg"
   xmlns:xlink="http://www.w3.org/1999/xlink"
   xmlns:sodipodi="http://sodipodi.sourceforge.net/DTD/sodipodi-0.dtd"
   xmlns:inkscape="http://www.inkscape.org/namespaces/inkscape"
   width="435.88333"
   height="290.49289"
   id="svg2"
   version="1.1"
   inkscape:version="0.48.4 r9939"
   sodipodi:docname="mass_spring_damper.svg">
  <sodipodi:namedview
     id="base"
     pagecolor="#ffffff"
     bordercolor="#666666"
     borderopacity="1.0"
     inkscape:pageopacity="0.0"
     inkscape:pageshadow="2"
     inkscape:zoom="2.915734"
     inkscape:cx="217.94167"
     inkscape:cy="145.24644"
     inkscape:document-units="px"
     inkscape:current-layer="layer1"
     showgrid="false"
     inkscape:window-width="1680"
     inkscape:window-height="1026"
     inkscape:window-x="0"
     inkscape:window-y="24"
     inkscape:window-maximized="1"
     showguides="true"
     inkscape:guide-bbox="true"
     fit-margin-top="0"
     fit-margin-left="0"
     fit-margin-right="0"
     fit-margin-bottom="0" />
  <defs
     id="defs4">
    <marker
       inkscape:stockid="Arrow1Send"
       orient="auto"
       refY="0"
       refX="0"
       id="Arrow1Send"
       style="overflow:visible">
      <path
         inkscape:connector-curvature="0"
         id="path4862"
         d="M 0,0 5,-5 -12.5,0 5,5 0,0 z"
         style="fill-rule:evenodd;stroke:#000000;stroke-width:1pt"
         transform="matrix(-0.2,0,0,-0.2,-1.2,0)" />
    </marker>
    <marker
       inkscape:stockid="Arrow1Mend"
       orient="auto"
       refY="0"
       refX="0"
       id="Arrow1Mend"
       style="overflow:visible">
      <path
         inkscape:connector-curvature="0"
         id="path4821"
         d="M 0,0 5,-5 -12.5,0 5,5 0,0 z"
         style="fill-rule:evenodd;stroke:#000000;stroke-width:1pt"
         transform="matrix(-0.4,0,0,-0.4,-4,0)" />
    </marker>
    <marker
       inkscape:stockid="Arrow1Lend"
       orient="auto"
       refY="0"
       refX="0"
       id="Arrow1Lend"
       style="overflow:visible">
      <path
         inkscape:connector-curvature="0"
         id="path4815"
         d="M 0,0 5,-5 -12.5,0 5,5 0,0 z"
         style="fill-rule:evenodd;stroke:#000000;stroke-width:1pt"
         transform="matrix(-0.8,0,0,-0.8,-10,0)" />
    </marker>
    <marker
       inkscape:stockid="Arrow1Lend"
       orient="auto"
       refY="0"
       refX="0"
       id="Arrow1Lend-5"
       style="overflow:visible">
      <path
         inkscape:connector-curvature="0"
         id="path4815-3"
         d="M 0,0 5,-5 -12.5,0 5,5 0,0 z"
         style="fill-rule:evenodd;stroke:#000000;stroke-width:1pt"
         transform="matrix(-0.8,0,0,-0.8,-10,0)" />
    </marker>
  </defs>
  <metadata
     id="metadata7">
    <rdf:RDF>
      <cc:Work
         rdf:about="">
        <dc:format>image/svg+xml</dc:format>
        <dc:type
           rdf:resource="http://purl.org/dc/dcmitype/StillImage" />
        <dc:title />
      </cc:Work>
    </rdf:RDF>
  </metadata>
  <g
     transform="translate(-44.73121,-710.92552)"
     id="layer1"
     inkscape:groupmode="layer"
     inkscape:label="Layer 1">
    <g
       transform="matrix(2,0,0,2,-175.3749,527.51819)"
       ns0:text="$m$"
       ns0:preamble=""
       id="g4309">
      <defs
         id="defs4311">
        <g
           id="g4313">
          <symbol
             style="overflow:visible"
             overflow="visible"
             id="textext-08e211e0-0">
            <path
               inkscape:connector-curvature="0"
               style="stroke:none"
               d=""
               id="path4316" />
          </symbol>
          <symbol
             style="overflow:visible"
             overflow="visible"
             id="textext-08e211e0-1">
            <path
               inkscape:connector-curvature="0"
               style="stroke:none"
               d="m 0.875,-0.59375 c -0.03125,0.15625 -0.09375,0.390625 -0.09375,0.4375 0,0.171875 0.140625,0.265625 0.296875,0.265625 0.125,0 0.296875,-0.078125 0.375,-0.28125 0,-0.015625 0.125,-0.484375 0.1875,-0.734375 l 0.21875,-0.890625 C 1.90625,-2.03125 1.96875,-2.25 2.03125,-2.46875 c 0.03125,-0.171875 0.109375,-0.46875 0.125,-0.5 0.140625,-0.3125 0.671875,-1.21875 1.625,-1.21875 0.453125,0 0.53125,0.375 0.53125,0.703125 0,0.25 -0.0625,0.53125 -0.140625,0.828125 L 3.890625,-1.5 3.6875,-0.75 c -0.03125,0.203125 -0.125,0.546875 -0.125,0.59375 0,0.171875 0.140625,0.265625 0.28125,0.265625 0.3125,0 0.375,-0.25 0.453125,-0.5625 0.140625,-0.5625 0.515625,-2.015625 0.59375,-2.40625 0.03125,-0.125 0.5625,-1.328125 1.65625,-1.328125 0.421875,0 0.53125,0.34375 0.53125,0.703125 0,0.5625 -0.421875,1.703125 -0.625,2.234375 -0.078125,0.234375 -0.125,0.34375 -0.125,0.546875 0,0.46875 0.34375,0.8125 0.8125,0.8125 0.9375,0 1.3125,-1.453125 1.3125,-1.53125 0,-0.109375 -0.09375,-0.109375 -0.125,-0.109375 -0.09375,0 -0.09375,0.03125 -0.140625,0.1875 -0.15625,0.53125 -0.46875,1.234375 -1.015625,1.234375 -0.171875,0 -0.25,-0.09375 -0.25,-0.328125 0,-0.25 0.09375,-0.484375 0.1875,-0.703125 0.1875,-0.53125 0.609375,-1.625 0.609375,-2.203125 0,-0.640625 -0.40625,-1.0625 -1.15625,-1.0625 -0.734375,0 -1.25,0.4375 -1.625,0.96875 0,-0.125 -0.03125,-0.46875 -0.3125,-0.703125 -0.25,-0.21875 -0.5625,-0.265625 -0.8125,-0.265625 -0.90625,0 -1.390625,0.640625 -1.5625,0.875 -0.046875,-0.578125 -0.46875,-0.875 -0.921875,-0.875 -0.453125,0 -0.640625,0.390625 -0.734375,0.5625 -0.171875,0.359375 -0.296875,0.9375 -0.296875,0.96875 0,0.109375 0.09375,0.109375 0.109375,0.109375 0.109375,0 0.109375,-0.015625 0.171875,-0.234375 0.171875,-0.703125 0.375,-1.1875 0.734375,-1.1875 0.15625,0 0.296875,0.078125 0.296875,0.453125 0,0.21875 -0.03125,0.328125 -0.15625,0.84375 z"
               id="path4319" />
          </symbol>
        </g>
      </defs>
      <g
         id="textext-08e211e0-2">
        <g
           style="fill:#000000;fill-opacity:1"
           id="g4322">
          <use
             height="400"
             width="400"
             xlink:href="#textext-08e211e0-1"
             x="223.43201"
             y="134.765"
             id="use4324" />
        </g>
      </g>
    </g>
    <g
       id="g4422"
       ns0:preamble=""
       ns0:text="$c$"
       transform="matrix(2,0,0,2,-304.1897,674.46192)">
      <defs
         id="defs4424">
        <g
           id="g4426">
          <symbol
             id="textext-2f24d870-0"
             overflow="visible"
             style="overflow:visible">
            <path
               id="path4429"
               d=""
               style="stroke:none"
               inkscape:connector-curvature="0" />
          </symbol>
          <symbol
             id="textext-2f24d870-1"
             overflow="visible"
             style="overflow:visible">
            <path
               id="path4432"
               d="m 3.953125,-3.78125 c -0.171875,0 -0.296875,0 -0.4375,0.125 -0.171875,0.15625 -0.1875,0.328125 -0.1875,0.390625 0,0.25 0.1875,0.359375 0.375,0.359375 0.28125,0 0.546875,-0.25 0.546875,-0.640625 0,-0.484375 -0.46875,-0.859375 -1.171875,-0.859375 -1.34375,0 -2.671875,1.421875 -2.671875,2.828125 0,0.90625 0.578125,1.6875 1.625,1.6875 1.421875,0 2.25,-1.0625 2.25,-1.171875 0,-0.0625 -0.046875,-0.140625 -0.109375,-0.140625 -0.0625,0 -0.078125,0.03125 -0.140625,0.109375 -0.78125,0.984375 -1.875,0.984375 -1.984375,0.984375 -0.625,0 -0.90625,-0.484375 -0.90625,-1.09375 0,-0.40625 0.203125,-1.375 0.546875,-1.984375 0.3125,-0.578125 0.859375,-1 1.40625,-1 0.328125,0 0.71875,0.125 0.859375,0.40625 z"
               style="stroke:none"
               inkscape:connector-curvature="0" />
          </symbol>
        </g>
      </defs>
      <g
         id="textext-2f24d870-2">
        <g
           id="g4435"
           style="fill:#000000;fill-opacity:1">
          <use
             id="use4437"
             y="134.765"
             x="223.43201"
             xlink:href="#textext-2f24d870-1"
             width="400"
             height="400" />
        </g>
      </g>
    </g>
    <g
       transform="matrix(2,0,0,2,-300.05385,486.92115)"
       ns0:text="$k$"
       ns0:preamble=""
       id="g4555">
      <defs
         id="defs4557">
        <g
           id="g4559">
          <symbol
             overflow="visible"
             id="textext-98de1750-0"
             style="overflow:visible">
            <path
               style="stroke:none"
               d=""
               id="path4562"
               inkscape:connector-curvature="0" />
          </symbol>
          <symbol
             overflow="visible"
             id="textext-98de1750-1"
             style="overflow:visible">
            <path
               style="stroke:none"
               d="m 2.859375,-6.8125 c 0,0 0,-0.109375 -0.125,-0.109375 -0.234375,0 -0.953125,0.078125 -1.21875,0.109375 -0.078125,0 -0.1875,0.015625 -0.1875,0.1875 0,0.125 0.09375,0.125 0.234375,0.125 0.484375,0 0.5,0.0625 0.5,0.171875 L 2.03125,-6.125 0.59375,-0.390625 c -0.046875,0.140625 -0.046875,0.15625 -0.046875,0.21875 0,0.234375 0.203125,0.28125 0.296875,0.28125 0.125,0 0.265625,-0.09375 0.328125,-0.203125 0.046875,-0.09375 0.5,-1.9375 0.5625,-2.1875 0.34375,0.03125 1.15625,0.1875 1.15625,0.84375 0,0.078125 0,0.109375 -0.03125,0.21875 -0.015625,0.109375 -0.03125,0.234375 -0.03125,0.34375 0,0.578125 0.390625,0.984375 0.90625,0.984375 0.296875,0 0.578125,-0.15625 0.796875,-0.53125 0.25,-0.4375 0.359375,-0.984375 0.359375,-1 0,-0.109375 -0.09375,-0.109375 -0.125,-0.109375 -0.09375,0 -0.109375,0.046875 -0.140625,0.1875 -0.203125,0.71875 -0.421875,1.234375 -0.859375,1.234375 -0.203125,0 -0.328125,-0.109375 -0.328125,-0.46875 0,-0.171875 0.046875,-0.40625 0.078125,-0.5625 C 3.5625,-1.3125 3.5625,-1.34375 3.5625,-1.453125 3.5625,-2.09375 2.9375,-2.375 2.078125,-2.5 2.390625,-2.671875 2.71875,-2.984375 2.9375,-3.234375 3.421875,-3.765625 3.875,-4.1875 4.359375,-4.1875 c 0.0625,0 0.078125,0 0.09375,0.015625 0.125,0.015625 0.125,0.015625 0.21875,0.078125 0.015625,0 0.015625,0.015625 0.03125,0.03125 -0.46875,0.03125 -0.5625,0.421875 -0.5625,0.546875 0,0.15625 0.109375,0.34375 0.375,0.34375 0.265625,0 0.546875,-0.21875 0.546875,-0.609375 0,-0.296875 -0.234375,-0.625 -0.671875,-0.625 -0.28125,0 -0.734375,0.078125 -1.453125,0.875 -0.34375,0.375 -0.734375,0.78125 -1.109375,0.921875 z"
               id="path4565"
               inkscape:connector-curvature="0" />
          </symbol>
        </g>
      </defs>
      <g
         id="textext-98de1750-2">
        <g
           style="fill:#000000;fill-opacity:1"
           id="g4568">
          <use
             xlink:href="#textext-98de1750-1"
             x="223.43201"
             y="134.765"
             id="use4570"
             width="400"
             height="400" />
        </g>
      </g>
    </g>
    <path
       transform="matrix(0,-2.2459897,1.0926436,0,-170.95716,1423.2612)"
       d="m 275.66301,434.91428 c 0,19.03056 -7.50518,34.45787 -16.76329,34.45787 -9.25811,0 -16.76329,-15.42731 -16.76329,-34.45787 0,-19.03056 7.50518,-34.45788 16.76329,-34.45788 9.25811,0 16.76329,15.42732 16.76329,34.45788 z"
       sodipodi:ry="34.457878"
       sodipodi:rx="16.763292"
       sodipodi:cy="434.91428"
       sodipodi:cx="258.89972"
       id="path2985"
       style="fill:#000000;stroke:#ffffff;stroke-width:3;stroke-linecap:round;stroke-linejoin:round;stroke-miterlimit:4;stroke-opacity:1;stroke-dasharray:none;stroke-dashoffset:0"
       sodipodi:type="arc" />
    <path
       inkscape:connector-curvature="0"
       id="path2987"
       d="m 56.55864,973.45649 0,-260.53097"
       style="fill:none;stroke:#000000;stroke-width:4;stroke-linecap:butt;stroke-linejoin:miter;stroke-miterlimit:4;stroke-opacity:1;stroke-dasharray:none" />
    <path
       inkscape:connector-curvature="0"
       id="path2989"
       d="m 298.92548,842.6045 -55.92921,0"
       style="fill:none;stroke:#000000;stroke-width:3;stroke-linecap:butt;stroke-linejoin:miter;stroke-miterlimit:4;stroke-opacity:1;stroke-dasharray:none" />
    <path
       sodipodi:nodetypes="cccc"
       inkscape:connector-curvature="0"
       id="path2991"
       d="m 152.84183,892.74853 89.9115,0 0,-95.57522 -30.07807,0"
       style="fill:none;stroke:#000000;stroke-width:3;stroke-linecap:butt;stroke-linejoin:miter;stroke-miterlimit:4;stroke-opacity:1;stroke-dasharray:none" />
    <path
       sodipodi:nodetypes="cccc"
       inkscape:connector-curvature="0"
       id="path2993"
       d="m 186.05687,919.27205 -73.62832,0 0,-53.09735 72.97678,0"
       style="fill:none;stroke:#000000;stroke-width:3;stroke-linecap:butt;stroke-linejoin:miter;stroke-miterlimit:4;stroke-opacity:1;stroke-dasharray:none" />
    <path
       sodipodi:nodetypes="cc"
       inkscape:connector-curvature="0"
       id="path2995"
       d="m 56.85189,892.56937 55.00778,0"
       style="fill:none;stroke:#000000;stroke-width:3;stroke-linecap:butt;stroke-linejoin:miter;stroke-miterlimit:4;stroke-opacity:1;stroke-dasharray:none" />
    <path
       inkscape:connector-curvature="0"
       id="path2999"
       d="m 206.49009,821.91648 -13.597,-50.74471"
       style="fill:none;stroke:#000000;stroke-width:3;stroke-linecap:butt;stroke-linejoin:miter;stroke-miterlimit:4;stroke-opacity:1;stroke-dasharray:none" />
    <path
       inkscape:connector-curvature="0"
       id="path2999-1"
       d="m 192.88645,771.18256 -13.597,50.74471"
       style="fill:none;stroke:#000000;stroke-width:3;stroke-linecap:butt;stroke-linejoin:miter;stroke-miterlimit:4;stroke-opacity:1;stroke-dasharray:none" />
    <path
       inkscape:connector-curvature="0"
       id="path2999-3"
       d="m 179.10909,821.74482 -13.597,-50.74471"
       style="fill:none;stroke:#000000;stroke-width:3;stroke-linecap:butt;stroke-linejoin:miter;stroke-miterlimit:4;stroke-opacity:1;stroke-dasharray:none" />
    <path
       inkscape:connector-curvature="0"
       id="path2999-1-3"
       d="m 165.50545,771.0109 -13.597,50.74471"
       style="fill:none;stroke:#000000;stroke-width:3;stroke-linecap:butt;stroke-linejoin:miter;stroke-miterlimit:4;stroke-opacity:1;stroke-dasharray:none" />
    <path
       inkscape:connector-curvature="0"
       id="path2999-3-2"
       d="m 152.07632,821.2442 -13.597,-50.74471"
       style="fill:none;stroke:#000000;stroke-width:3;stroke-linecap:butt;stroke-linejoin:miter;stroke-miterlimit:4;stroke-opacity:1;stroke-dasharray:none" />
    <path
       inkscape:connector-curvature="0"
       id="path2999-1-3-5"
       d="m 138.47268,770.51028 -13.597,50.74471"
       style="fill:none;stroke:#000000;stroke-width:3;stroke-linecap:butt;stroke-linejoin:miter;stroke-miterlimit:4;stroke-opacity:1;stroke-dasharray:none" />
    <path
       inkscape:connector-curvature="0"
       id="path2999-3-8"
       d="m 124.79326,820.7436 -13.597,-50.74471"
       style="fill:none;stroke:#000000;stroke-width:3;stroke-linecap:butt;stroke-linejoin:miter;stroke-miterlimit:4;stroke-opacity:1;stroke-dasharray:none" />
    <path
       inkscape:connector-curvature="0"
       id="path2999-1-3-1"
       d="m 111.18962,770.00968 -13.597,50.74471"
       style="fill:none;stroke:#000000;stroke-width:3;stroke-linecap:butt;stroke-linejoin:miter;stroke-miterlimit:4;stroke-opacity:1;stroke-dasharray:none" />
    <path
       sodipodi:nodetypes="cc"
       inkscape:connector-curvature="0"
       id="path3070"
       d="m 57.127443,794.50059 33.290336,0"
       style="fill:none;stroke:#000000;stroke-width:3;stroke-linecap:butt;stroke-linejoin:miter;stroke-miterlimit:4;stroke-opacity:1;stroke-dasharray:none" />
    <path
       sodipodi:nodetypes="cc"
       inkscape:connector-curvature="0"
       id="path3072"
       d="m 152.27667,914.39586 0,-42.55156"
       style="fill:none;stroke:#000000;stroke-width:3;stroke-linecap:butt;stroke-linejoin:miter;stroke-miterlimit:4;stroke-opacity:1;stroke-dasharray:none" />
    <path
       sodipodi:nodetypes="cc"
       inkscape:connector-curvature="0"
       id="path2999-1-7"
       d="m 212.79262,797.27443 -6.52473,24.35063"
       style="fill:none;stroke:#000000;stroke-width:3;stroke-linecap:butt;stroke-linejoin:miter;stroke-miterlimit:4;stroke-opacity:1;stroke-dasharray:none" />
    <path
       sodipodi:nodetypes="cc"
       inkscape:connector-curvature="0"
       id="path2999-3-8-9"
       d="M 97.21628,820.62385 90.19664,794.42619"
       style="fill:none;stroke:#000000;stroke-width:3;stroke-linecap:butt;stroke-linejoin:miter;stroke-miterlimit:4;stroke-opacity:1;stroke-dasharray:none" />
    <path
       inkscape:tile-y0="43.18584"
       inkscape:tile-x0="74.775812"
       inkscape:tile-h="11.19106"
       inkscape:tile-w="19.38348"
       inkscape:tile-cy="48.78137"
       inkscape:tile-cx="84.467552"
       inkscape:connector-curvature="0"
       id="path3897"
       d="m 45.23121,945.13791 11.19106,19.38348"
       style="fill:none;stroke:#000000;stroke-width:1px;stroke-linecap:butt;stroke-linejoin:miter;stroke-opacity:1" />
    <use
       id="use3919"
       xlink:href="#path3897"
       inkscape:tiled-clone-of="#path3897"
       y="0"
       x="0"
       width="400"
       height="400" />
    <use
       inkscape:tile-y0="43.18584"
       inkscape:tile-x0="74.775812"
       inkscape:tile-h="11.19106"
       inkscape:tile-w="19.38348"
       inkscape:tile-cy="48.78137"
       inkscape:tile-cx="84.467552"
       id="use3935"
       xlink:href="#path3897"
       inkscape:tiled-clone-of="#path3897"
       y="0"
       x="0"
       width="400"
       height="400" />
    <use
       id="use4121"
       xlink:href="#use3935"
       inkscape:tiled-clone-of="#use3935"
       y="0"
       x="0"
       width="400"
       height="400" />
    <use
       id="use4123"
       transform="translate(0,-19.38348)"
       xlink:href="#use3935"
       inkscape:tiled-clone-of="#use3935"
       y="0"
       x="0"
       width="400"
       height="400" />
    <use
       id="use4125"
       transform="translate(0,-38.76696)"
       xlink:href="#use3935"
       inkscape:tiled-clone-of="#use3935"
       y="0"
       x="0"
       width="400"
       height="400" />
    <use
       id="use4127"
       transform="translate(0,-58.15044)"
       xlink:href="#use3935"
       inkscape:tiled-clone-of="#use3935"
       y="0"
       x="0"
       width="400"
       height="400" />
    <use
       id="use4129"
       transform="translate(0,-77.53392)"
       xlink:href="#use3935"
       inkscape:tiled-clone-of="#use3935"
       y="0"
       x="0"
       width="400"
       height="400" />
    <use
       id="use4131"
       transform="translate(0,-96.9174)"
       xlink:href="#use3935"
       inkscape:tiled-clone-of="#use3935"
       y="0"
       x="0"
       width="400"
       height="400" />
    <use
       id="use4133"
       transform="translate(0,-116.30088)"
       xlink:href="#use3935"
       inkscape:tiled-clone-of="#use3935"
       y="0"
       x="0"
       width="400"
       height="400" />
    <use
       id="use4135"
       transform="translate(0,-135.68436)"
       xlink:href="#use3935"
       inkscape:tiled-clone-of="#use3935"
       y="0"
       x="0"
       width="400"
       height="400" />
    <use
       id="use4137"
       transform="translate(0,-155.06784)"
       xlink:href="#use3935"
       inkscape:tiled-clone-of="#use3935"
       y="0"
       x="0"
       width="400"
       height="400" />
    <use
       id="use4139"
       transform="translate(0,-174.45132)"
       xlink:href="#use3935"
       inkscape:tiled-clone-of="#use3935"
       y="0"
       x="0"
       width="400"
       height="400" />
    <use
       id="use4141"
       transform="translate(0,-193.8348)"
       xlink:href="#use3935"
       inkscape:tiled-clone-of="#use3935"
       y="0"
       x="0"
       width="400"
       height="400" />
    <use
       id="use4143"
       transform="translate(0,-213.21828)"
       xlink:href="#use3935"
       inkscape:tiled-clone-of="#use3935"
       y="0"
       x="0"
       width="400"
       height="400" />
    <use
       id="use4145"
       transform="translate(0,-232.60176)"
       xlink:href="#use3935"
       inkscape:tiled-clone-of="#use3935"
       y="0"
       x="0"
       width="400"
       height="400" />
    <path
       style="fill:none;stroke:#000000;stroke-width:1px;stroke-linecap:butt;stroke-linejoin:miter;stroke-opacity:1;marker-end:url(#Arrow1Lend)"
       d="m 222.64961,958.21224 79.0153,0"
       id="path4802"
       inkscape:connector-curvature="0"
       sodipodi:nodetypes="cc" />
    <path
       style="fill:none;stroke:#000000;stroke-width:1px;stroke-linecap:butt;stroke-linejoin:miter;stroke-opacity:1"
       d="m 303.62254,884.63276 0,84.40624"
       id="path4804"
       inkscape:connector-curvature="0"
       sodipodi:nodetypes="cc" />
    <g
       id="g3236"
       style="stroke-width:0.0000001"
       ns0:page_width=""
       ns0:preamble=""
       ns0:text="$x$, $\\dot{x}$, $\\ddot{x}$"
       transform="matrix(2,0,0,2,-211.9034,676.61531)">
      <defs
         id="defs3238">
        <g
           id="g3240">
          <symbol
             id="textext-55ee1293-0"
             overflow="visible"
             style="overflow:visible">
            <path
               id="path3243"
               d=""
               style="stroke:none"
               inkscape:connector-curvature="0" />
          </symbol>
          <symbol
             id="textext-55ee1293-1"
             overflow="visible"
             style="overflow:visible">
            <path
               id="path3246"
               d="M 3.328125,-3.015625 C 3.390625,-3.265625 3.625,-4.1875 4.3125,-4.1875 c 0.046875,0 0.296875,0 0.5,0.125 C 4.53125,-4 4.34375,-3.765625 4.34375,-3.515625 c 0,0.15625 0.109375,0.34375 0.375,0.34375 0.21875,0 0.53125,-0.171875 0.53125,-0.578125 0,-0.515625 -0.578125,-0.65625 -0.921875,-0.65625 -0.578125,0 -0.921875,0.53125 -1.046875,0.75 -0.25,-0.65625 -0.78125,-0.75 -1.078125,-0.75 -1.03125,0 -1.609375,1.28125 -1.609375,1.53125 0,0.109375 0.109375,0.109375 0.125,0.109375 0.078125,0 0.109375,-0.03125 0.125,-0.109375 0.34375,-1.0625 1,-1.3125 1.34375,-1.3125 0.1875,0 0.53125,0.09375 0.53125,0.671875 0,0.3125 -0.171875,0.96875 -0.53125,2.375 -0.15625,0.609375 -0.515625,1.03125 -0.953125,1.03125 -0.0625,0 -0.28125,0 -0.5,-0.125 0.25,-0.0625 0.46875,-0.265625 0.46875,-0.546875 0,-0.265625 -0.21875,-0.34375 -0.359375,-0.34375 -0.3125,0 -0.546875,0.25 -0.546875,0.578125 0,0.453125 0.484375,0.65625 0.921875,0.65625 0.671875,0 1.03125,-0.703125 1.046875,-0.75 0.125,0.359375 0.484375,0.75 1.078125,0.75 1.03125,0 1.59375,-1.28125 1.59375,-1.53125 0,-0.109375 -0.078125,-0.109375 -0.109375,-0.109375 -0.09375,0 -0.109375,0.046875 -0.140625,0.109375 -0.328125,1.078125 -1,1.3125 -1.3125,1.3125 -0.390625,0 -0.546875,-0.3125 -0.546875,-0.65625 0,-0.21875 0.046875,-0.4375 0.15625,-0.875 z m 0,0"
               style="stroke:none"
               inkscape:connector-curvature="0" />
          </symbol>
          <symbol
             id="textext-55ee1293-2"
             overflow="visible"
             style="overflow:visible">
            <path
               id="path3249"
               d=""
               style="stroke:none"
               inkscape:connector-curvature="0" />
          </symbol>
          <symbol
             id="textext-55ee1293-3"
             overflow="visible"
             style="overflow:visible">
            <path
               id="path3252"
               d="m 2.03125,-0.015625 c 0,-0.625 -0.25,-1.046875 -0.640625,-1.046875 -0.359375,0 -0.53125,0.28125 -0.53125,0.53125 0,0.265625 0.171875,0.53125 0.53125,0.53125 0.15625,0 0.28125,-0.0625 0.375,-0.140625 L 1.78125,-0.15625 c 0.015625,0 0.015625,0 0.015625,0.140625 0,0.640625 -0.265625,1.25 -0.703125,1.71875 -0.0625,0.0625 -0.078125,0.078125 -0.078125,0.109375 0,0.078125 0.046875,0.109375 0.09375,0.109375 0.125,0 0.921875,-0.78125 0.921875,-1.9375 z m 0,0"
               style="stroke:none"
               inkscape:connector-curvature="0" />
          </symbol>
          <symbol
             id="textext-55ee1293-4"
             overflow="visible"
             style="overflow:visible">
            <path
               id="path3255"
               d="m 1.90625,-6.140625 c 0,-0.265625 -0.21875,-0.53125 -0.515625,-0.53125 -0.34375,0 -0.546875,0.28125 -0.546875,0.53125 0,0.265625 0.234375,0.53125 0.53125,0.53125 0.34375,0 0.53125,-0.28125 0.53125,-0.53125 z m 0,0"
               style="stroke:none"
               inkscape:connector-curvature="0" />
          </symbol>
          <symbol
             id="textext-55ee1293-5"
             overflow="visible"
             style="overflow:visible">
            <path
               id="path3258"
               d="m 2.03125,-6.171875 c 0,-0.234375 -0.203125,-0.5 -0.5,-0.5 -0.28125,0 -0.5,0.21875 -0.5,0.5 0,0.28125 0.21875,0.5 0.5,0.5 0.296875,0 0.5,-0.265625 0.5,-0.5 z m 1.921875,0 c 0,-0.28125 -0.21875,-0.5 -0.5,-0.5 -0.296875,0 -0.5,0.265625 -0.5,0.5 0,0.234375 0.203125,0.5 0.5,0.5 0.28125,0 0.5,-0.21875 0.5,-0.5 z m 0,0"
               style="stroke:none"
               inkscape:connector-curvature="0" />
          </symbol>
        </g>
      </defs>
      <g
         id="textext-55ee1293-6">
        <g
           id="g3261"
           style="fill:#000000;fill-opacity:1">
          <use
             id="use3263"
             y="134.765"
             x="223.43201"
             xlink:href="#textext-55ee1293-1"
             width="400"
             height="400" />
        </g>
        <g
           id="g3265"
           style="fill:#000000;fill-opacity:1">
          <use
             id="use3267"
             y="134.765"
             x="229.12601"
             xlink:href="#textext-55ee1293-3"
             width="400"
             height="400" />
        </g>
        <g
           id="g3269"
           style="fill:#000000;fill-opacity:1">
          <use
             id="use3271"
             y="134.765"
             x="236.95461"
             xlink:href="#textext-55ee1293-4"
             width="400"
             height="400" />
        </g>
        <g
           id="g3273"
           style="fill:#000000;fill-opacity:1">
          <use
             id="use3275"
             y="134.765"
             x="235.214"
             xlink:href="#textext-55ee1293-1"
             width="400"
             height="400" />
        </g>
        <g
           id="g3277"
           style="fill:#000000;fill-opacity:1">
          <use
             id="use3279"
             y="134.765"
             x="240.908"
             xlink:href="#textext-55ee1293-3"
             width="400"
             height="400" />
        </g>
        <g
           id="g3281"
           style="fill:#000000;fill-opacity:1">
          <use
             id="use3283"
             y="134.765"
             x="247.63077"
             xlink:href="#textext-55ee1293-5"
             width="400"
             height="400" />
        </g>
        <g
           id="g3285"
           style="fill:#000000;fill-opacity:1">
          <use
             id="use3287"
             y="134.765"
             x="246.996"
             xlink:href="#textext-55ee1293-1"
             width="400"
             height="400" />
        </g>
      </g>
    </g>
    <path
       style="fill:none;stroke:#000000;stroke-width:5;stroke-linecap:butt;stroke-linejoin:miter;stroke-miterlimit:4;stroke-opacity:1;stroke-dasharray:none;marker-end:url(#Arrow1Send)"
       d="m 338.69078,842.6045 49.37084,0"
       id="path4802-4"
       inkscape:connector-curvature="0"
       sodipodi:nodetypes="cc" />
    <path
       style="fill:none;stroke:#000000;stroke-width:1px;stroke-linecap:butt;stroke-linejoin:miter;stroke-opacity:1"
       d="m 222.59796,942.55026 0,26.58122"
       id="path4804-1"
       inkscape:connector-curvature="0"
       sodipodi:nodetypes="cc" />
    <g
       transform="matrix(2,0,0,2,-248.85336,717.17765)"
       ns0:text="$x=x_{eq}$"
       ns0:preamble=""
       ns0:page_width=""
       style="stroke-width:0.0000001"
       id="g3948">
      <defs
         id="defs3950">
        <g
           id="g3952">
          <symbol
             style="overflow:visible"
             overflow="visible"
             id="textext-0df879d7-0">
            <path
               inkscape:connector-curvature="0"
               style="stroke:none"
               d=""
               id="path3955" />
          </symbol>
          <symbol
             style="overflow:visible"
             overflow="visible"
             id="textext-0df879d7-1">
            <path
               inkscape:connector-curvature="0"
               style="stroke:none"
               d="M 3.328125,-3.015625 C 3.390625,-3.265625 3.625,-4.1875 4.3125,-4.1875 c 0.046875,0 0.296875,0 0.5,0.125 C 4.53125,-4 4.34375,-3.765625 4.34375,-3.515625 c 0,0.15625 0.109375,0.34375 0.375,0.34375 0.21875,0 0.53125,-0.171875 0.53125,-0.578125 0,-0.515625 -0.578125,-0.65625 -0.921875,-0.65625 -0.578125,0 -0.921875,0.53125 -1.046875,0.75 -0.25,-0.65625 -0.78125,-0.75 -1.078125,-0.75 -1.03125,0 -1.609375,1.28125 -1.609375,1.53125 0,0.109375 0.109375,0.109375 0.125,0.109375 0.078125,0 0.109375,-0.03125 0.125,-0.109375 0.34375,-1.0625 1,-1.3125 1.34375,-1.3125 0.1875,0 0.53125,0.09375 0.53125,0.671875 0,0.3125 -0.171875,0.96875 -0.53125,2.375 -0.15625,0.609375 -0.515625,1.03125 -0.953125,1.03125 -0.0625,0 -0.28125,0 -0.5,-0.125 0.25,-0.0625 0.46875,-0.265625 0.46875,-0.546875 0,-0.265625 -0.21875,-0.34375 -0.359375,-0.34375 -0.3125,0 -0.546875,0.25 -0.546875,0.578125 0,0.453125 0.484375,0.65625 0.921875,0.65625 0.671875,0 1.03125,-0.703125 1.046875,-0.75 0.125,0.359375 0.484375,0.75 1.078125,0.75 1.03125,0 1.59375,-1.28125 1.59375,-1.53125 0,-0.109375 -0.078125,-0.109375 -0.109375,-0.109375 -0.09375,0 -0.109375,0.046875 -0.140625,0.109375 -0.328125,1.078125 -1,1.3125 -1.3125,1.3125 -0.390625,0 -0.546875,-0.3125 -0.546875,-0.65625 0,-0.21875 0.046875,-0.4375 0.15625,-0.875 z m 0,0"
               id="path3958" />
          </symbol>
          <symbol
             style="overflow:visible"
             overflow="visible"
             id="textext-0df879d7-2">
            <path
               inkscape:connector-curvature="0"
               style="stroke:none"
               d=""
               id="path3961" />
          </symbol>
          <symbol
             style="overflow:visible"
             overflow="visible"
             id="textext-0df879d7-3">
            <path
               inkscape:connector-curvature="0"
               style="stroke:none"
               d="m 6.84375,-3.265625 c 0.15625,0 0.34375,0 0.34375,-0.1875 C 7.1875,-3.65625 7,-3.65625 6.859375,-3.65625 l -5.96875,0 c -0.140625,0 -0.328125,0 -0.328125,0.203125 0,0.1875 0.1875,0.1875 0.328125,0.1875 z m 0.015625,1.9375 c 0.140625,0 0.328125,0 0.328125,-0.203125 0,-0.1875 -0.1875,-0.1875 -0.34375,-0.1875 l -5.953125,0 c -0.140625,0 -0.328125,0 -0.328125,0.1875 0,0.203125 0.1875,0.203125 0.328125,0.203125 z m 0,0"
               id="path3964" />
          </symbol>
          <symbol
             style="overflow:visible"
             overflow="visible"
             id="textext-0df879d7-4">
            <path
               inkscape:connector-curvature="0"
               style="stroke:none"
               d=""
               id="path3967" />
          </symbol>
          <symbol
             style="overflow:visible"
             overflow="visible"
             id="textext-0df879d7-5">
            <path
               inkscape:connector-curvature="0"
               style="stroke:none"
               d="m 1.5625,-1.59375 c 0.1875,0 0.75,-0.015625 1.125,-0.140625 0.515625,-0.1875 0.609375,-0.515625 0.609375,-0.71875 0,-0.390625 -0.390625,-0.625 -0.859375,-0.625 -0.84375,0 -1.96875,0.640625 -1.96875,1.84375 0,0.703125 0.4375,1.296875 1.25,1.296875 1.1875,0 1.734375,-0.6875 1.734375,-0.78125 0,-0.046875 -0.0625,-0.125 -0.125,-0.125 -0.03125,0 -0.046875,0.015625 -0.109375,0.078125 C 2.671875,-0.125 1.859375,-0.125 1.734375,-0.125 1.3125,-0.125 1.03125,-0.40625 1.03125,-0.96875 c 0,-0.09375 0,-0.234375 0.09375,-0.625 z M 1.171875,-1.78125 C 1.46875,-2.796875 2.234375,-2.875 2.4375,-2.875 2.734375,-2.875 3,-2.71875 3,-2.453125 3,-1.78125 1.8125,-1.78125 1.515625,-1.78125 z m 0,0"
               id="path3970" />
          </symbol>
          <symbol
             style="overflow:visible"
             overflow="visible"
             id="textext-0df879d7-6">
            <path
               inkscape:connector-curvature="0"
               style="stroke:none"
               d="m 3.546875,-2.875 c 0,-0.03125 0.015625,-0.0625 0.015625,-0.09375 0,-0.046875 -0.03125,-0.109375 -0.09375,-0.109375 -0.0625,0 -0.359375,0.234375 -0.5,0.46875 -0.0625,-0.140625 -0.296875,-0.46875 -0.75,-0.46875 -0.890625,0 -1.796875,0.984375 -1.796875,1.984375 0,0.6875 0.453125,1.15625 1.0625,1.15625 0.390625,0 0.71875,-0.25 0.875,-0.375 C 2.34375,-0.296875 2.125,0.578125 2.109375,0.703125 2,1.09375 2,1.09375 1.5625,1.09375 c -0.078125,0 -0.171875,0 -0.171875,0.15625 0,0.046875 0.03125,0.109375 0.09375,0.109375 0.234375,0 0.5,-0.03125 0.734375,-0.03125 0.234375,0 0.53125,0.03125 0.75,0.03125 0.0625,0 0.125,-0.03125 0.125,-0.15625 C 3.09375,1.09375 3,1.09375 2.921875,1.09375 c -0.15625,0 -0.34375,0 -0.34375,-0.078125 0,-0.015625 0,-0.03125 0.03125,-0.15625 z M 2.5,-0.875 C 2.453125,-0.765625 2.453125,-0.75 2.375,-0.640625 2.09375,-0.3125 1.765625,-0.125 1.5,-0.125 c -0.265625,0 -0.515625,-0.1875 -0.515625,-0.671875 0,-0.375 0.203125,-1.140625 0.375,-1.421875 0.3125,-0.5625 0.671875,-0.65625 0.859375,-0.65625 0.484375,0 0.625,0.53125 0.625,0.609375 0,0.03125 -0.015625,0.078125 -0.015625,0.09375 z m 0,0"
               id="path3973" />
          </symbol>
        </g>
      </defs>
      <g
         id="textext-0df879d7-7">
        <g
           style="fill:#000000;fill-opacity:1"
           id="g3976">
          <use
             height="290.49289"
             width="435.88333"
             xlink:href="#textext-0df879d7-1"
             x="223.43201"
             y="134.765"
             id="use3978" />
        </g>
        <g
           style="fill:#000000;fill-opacity:1"
           id="g3980">
          <use
             height="290.49289"
             width="435.88333"
             xlink:href="#textext-0df879d7-3"
             x="231.89301"
             y="134.765"
             id="use3982" />
        </g>
        <g
           style="fill:#000000;fill-opacity:1"
           id="g3984">
          <use
             height="290.49289"
             width="435.88333"
             xlink:href="#textext-0df879d7-1"
             x="242.409"
             y="134.765"
             id="use3986" />
        </g>
        <g
           style="fill:#000000;fill-opacity:1"
           id="g3988">
          <use
             height="290.49289"
             width="435.88333"
             xlink:href="#textext-0df879d7-5"
             x="248.103"
             y="136.259"
             id="use3990" />
          <use
             height="290.49289"
             width="435.88333"
             xlink:href="#textext-0df879d7-6"
             x="251.8828"
             y="136.259"
             id="use3992" />
        </g>
      </g>
    </g>
    <g
       id="g3310"
       style="stroke-width:0.0000001"
       ns0:page_width=""
       ns0:preamble=""
       ns0:text="$F = F_0 \\sin\\omega t$"
       transform="matrix(2,0,0,2,-91.745432,557.18775)">
      <defs
         id="defs3312">
        <g
           id="g3314">
          <symbol
             id="textext-9927b3fe-0"
             overflow="visible">
            <path
               id="path3317"
               d=""
               style="stroke:none;" />
          </symbol>
          <symbol
             id="textext-9927b3fe-1"
             overflow="visible">
            <path
               id="path3320"
               d="M 3.015625 -3.234375 L 3.984375 -3.234375 C 4.734375 -3.234375 4.8125 -3.078125 4.8125 -2.796875 C 4.8125 -2.71875 4.8125 -2.609375 4.75 -2.296875 C 4.71875 -2.25 4.71875 -2.21875 4.71875 -2.1875 C 4.71875 -2.109375 4.78125 -2.078125 4.828125 -2.078125 C 4.9375 -2.078125 4.9375 -2.109375 4.984375 -2.28125 L 5.53125 -4.453125 C 5.5625 -4.5625 5.5625 -4.578125 5.5625 -4.609375 C 5.5625 -4.625 5.546875 -4.71875 5.4375 -4.71875 C 5.34375 -4.71875 5.328125 -4.671875 5.296875 -4.5 C 5.078125 -3.734375 4.859375 -3.546875 4 -3.546875 L 3.09375 -3.546875 L 3.734375 -6.078125 C 3.828125 -6.4375 3.84375 -6.46875 4.28125 -6.46875 L 5.59375 -6.46875 C 6.8125 -6.46875 7.046875 -6.140625 7.046875 -5.375 C 7.046875 -5.140625 7.046875 -5.109375 7.015625 -4.828125 C 7 -4.703125 7 -4.6875 7 -4.65625 C 7 -4.609375 7.03125 -4.53125 7.125 -4.53125 C 7.234375 -4.53125 7.234375 -4.59375 7.25 -4.78125 L 7.453125 -6.515625 C 7.484375 -6.78125 7.4375 -6.78125 7.1875 -6.78125 L 2.296875 -6.78125 C 2.109375 -6.78125 2 -6.78125 2 -6.578125 C 2 -6.46875 2.09375 -6.46875 2.28125 -6.46875 C 2.65625 -6.46875 2.9375 -6.46875 2.9375 -6.296875 C 2.9375 -6.25 2.9375 -6.234375 2.875 -6.046875 L 1.5625 -0.78125 C 1.46875 -0.390625 1.453125 -0.3125 0.65625 -0.3125 C 0.484375 -0.3125 0.375 -0.3125 0.375 -0.125 C 0.375 0 0.5 0 0.53125 0 C 0.8125 0 1.5625 -0.03125 1.84375 -0.03125 C 2.171875 -0.03125 3 0 3.328125 0 C 3.421875 0 3.53125 0 3.53125 -0.1875 C 3.53125 -0.265625 3.484375 -0.296875 3.484375 -0.296875 C 3.453125 -0.3125 3.421875 -0.3125 3.203125 -0.3125 C 2.984375 -0.3125 2.9375 -0.3125 2.6875 -0.328125 C 2.390625 -0.359375 2.359375 -0.40625 2.359375 -0.53125 C 2.359375 -0.546875 2.359375 -0.609375 2.40625 -0.75 Z M 3.015625 -3.234375 "
               style="stroke:none;" />
          </symbol>
          <symbol
             id="textext-9927b3fe-2"
             overflow="visible">
            <path
               id="path3323"
               d="M 6.03125 -3.703125 C 6.03125 -4.15625 5.859375 -4.40625 5.625 -4.40625 C 5.375 -4.40625 5.109375 -4.171875 5.109375 -3.9375 C 5.109375 -3.84375 5.15625 -3.734375 5.25 -3.640625 C 5.421875 -3.484375 5.609375 -3.21875 5.609375 -2.796875 C 5.609375 -2.40625 5.40625 -1.828125 5.109375 -1.375 C 4.8125 -0.953125 4.4375 -0.609375 3.96875 -0.609375 C 3.40625 -0.609375 3.09375 -0.96875 3 -1.5 C 3.109375 -1.765625 3.34375 -2.40625 3.34375 -2.6875 C 3.34375 -2.796875 3.296875 -2.90625 3.15625 -2.90625 C 3.078125 -2.90625 2.96875 -2.875 2.890625 -2.734375 C 2.78125 -2.53125 2.65625 -1.890625 2.65625 -1.53125 C 2.328125 -1.0625 1.9375 -0.609375 1.3125 -0.609375 C 0.640625 -0.609375 0.4375 -1.203125 0.4375 -1.75 C 0.4375 -3 1.453125 -4.046875 1.453125 -4.171875 C 1.453125 -4.28125 1.375 -4.359375 1.265625 -4.359375 C 1.140625 -4.359375 1.0625 -4.234375 1 -4.140625 C 0.5 -3.40625 0.125 -2.21875 0.125 -1.3125 C 0.125 -0.625 0.34375 0.109375 1.171875 0.109375 C 1.875 0.109375 2.34375 -0.390625 2.703125 -0.9375 C 2.796875 -0.359375 3.1875 0.109375 3.796875 0.109375 C 4.578125 0.109375 5.046875 -0.5 5.40625 -1.25 C 5.65625 -1.734375 6.03125 -3.09375 6.03125 -3.703125 Z M 6.03125 -3.703125 "
               style="stroke:none;" />
          </symbol>
          <symbol
             id="textext-9927b3fe-3"
             overflow="visible">
            <path
               id="path3326"
               d="M 2.046875 -3.984375 L 2.984375 -3.984375 C 3.1875 -3.984375 3.296875 -3.984375 3.296875 -4.1875 C 3.296875 -4.296875 3.1875 -4.296875 3.015625 -4.296875 L 2.140625 -4.296875 C 2.5 -5.71875 2.546875 -5.90625 2.546875 -5.96875 C 2.546875 -6.140625 2.421875 -6.234375 2.25 -6.234375 C 2.21875 -6.234375 1.9375 -6.234375 1.859375 -5.875 L 1.46875 -4.296875 L 0.53125 -4.296875 C 0.328125 -4.296875 0.234375 -4.296875 0.234375 -4.109375 C 0.234375 -3.984375 0.3125 -3.984375 0.515625 -3.984375 L 1.390625 -3.984375 C 0.671875 -1.15625 0.625 -0.984375 0.625 -0.8125 C 0.625 -0.265625 1 0.109375 1.546875 0.109375 C 2.5625 0.109375 3.125 -1.34375 3.125 -1.421875 C 3.125 -1.53125 3.046875 -1.53125 3.015625 -1.53125 C 2.921875 -1.53125 2.90625 -1.5 2.859375 -1.390625 C 2.4375 -0.34375 1.90625 -0.109375 1.5625 -0.109375 C 1.359375 -0.109375 1.25 -0.234375 1.25 -0.5625 C 1.25 -0.8125 1.28125 -0.875 1.3125 -1.046875 Z M 2.046875 -3.984375 "
               style="stroke:none;" />
          </symbol>
          <symbol
             id="textext-9927b3fe-4"
             overflow="visible">
            <path
               id="path3329"
               d=""
               style="stroke:none;" />
          </symbol>
          <symbol
             id="textext-9927b3fe-5"
             overflow="visible">
            <path
               id="path3332"
               d="M 6.84375 -3.265625 C 7 -3.265625 7.1875 -3.265625 7.1875 -3.453125 C 7.1875 -3.65625 7 -3.65625 6.859375 -3.65625 L 0.890625 -3.65625 C 0.75 -3.65625 0.5625 -3.65625 0.5625 -3.453125 C 0.5625 -3.265625 0.75 -3.265625 0.890625 -3.265625 Z M 6.859375 -1.328125 C 7 -1.328125 7.1875 -1.328125 7.1875 -1.53125 C 7.1875 -1.71875 7 -1.71875 6.84375 -1.71875 L 0.890625 -1.71875 C 0.75 -1.71875 0.5625 -1.71875 0.5625 -1.53125 C 0.5625 -1.328125 0.75 -1.328125 0.890625 -1.328125 Z M 6.859375 -1.328125 "
               style="stroke:none;" />
          </symbol>
          <symbol
             id="textext-9927b3fe-6"
             overflow="visible">
            <path
               id="path3335"
               d="M 2.078125 -1.9375 C 2.296875 -1.890625 3.109375 -1.734375 3.109375 -1.015625 C 3.109375 -0.515625 2.765625 -0.109375 1.984375 -0.109375 C 1.140625 -0.109375 0.78125 -0.671875 0.59375 -1.53125 C 0.5625 -1.65625 0.5625 -1.6875 0.453125 -1.6875 C 0.328125 -1.6875 0.328125 -1.625 0.328125 -1.453125 L 0.328125 -0.125 C 0.328125 0.046875 0.328125 0.109375 0.4375 0.109375 C 0.484375 0.109375 0.5 0.09375 0.6875 -0.09375 C 0.703125 -0.109375 0.703125 -0.125 0.890625 -0.3125 C 1.328125 0.09375 1.78125 0.109375 1.984375 0.109375 C 3.125 0.109375 3.59375 -0.5625 3.59375 -1.28125 C 3.59375 -1.796875 3.296875 -2.109375 3.171875 -2.21875 C 2.84375 -2.546875 2.453125 -2.625 2.03125 -2.703125 C 1.46875 -2.8125 0.8125 -2.9375 0.8125 -3.515625 C 0.8125 -3.875 1.0625 -4.28125 1.921875 -4.28125 C 3.015625 -4.28125 3.078125 -3.375 3.09375 -3.078125 C 3.09375 -2.984375 3.1875 -2.984375 3.203125 -2.984375 C 3.34375 -2.984375 3.34375 -3.03125 3.34375 -3.21875 L 3.34375 -4.234375 C 3.34375 -4.390625 3.34375 -4.46875 3.234375 -4.46875 C 3.1875 -4.46875 3.15625 -4.46875 3.03125 -4.34375 C 3 -4.3125 2.90625 -4.21875 2.859375 -4.1875 C 2.484375 -4.46875 2.078125 -4.46875 1.921875 -4.46875 C 0.703125 -4.46875 0.328125 -3.796875 0.328125 -3.234375 C 0.328125 -2.890625 0.484375 -2.609375 0.75 -2.390625 C 1.078125 -2.140625 1.359375 -2.078125 2.078125 -1.9375 Z M 2.078125 -1.9375 "
               style="stroke:none;" />
          </symbol>
          <symbol
             id="textext-9927b3fe-7"
             overflow="visible">
            <path
               id="path3338"
               d="M 1.765625 -4.40625 L 0.375 -4.296875 L 0.375 -3.984375 C 1.015625 -3.984375 1.109375 -3.921875 1.109375 -3.4375 L 1.109375 -0.75 C 1.109375 -0.3125 1 -0.3125 0.328125 -0.3125 L 0.328125 0 C 0.640625 -0.015625 1.1875 -0.03125 1.421875 -0.03125 C 1.78125 -0.03125 2.125 -0.015625 2.46875 0 L 2.46875 -0.3125 C 1.796875 -0.3125 1.765625 -0.359375 1.765625 -0.75 Z M 1.796875 -6.140625 C 1.796875 -6.453125 1.5625 -6.671875 1.28125 -6.671875 C 0.96875 -6.671875 0.75 -6.40625 0.75 -6.140625 C 0.75 -5.875 0.96875 -5.609375 1.28125 -5.609375 C 1.5625 -5.609375 1.796875 -5.828125 1.796875 -6.140625 Z M 1.796875 -6.140625 "
               style="stroke:none;" />
          </symbol>
          <symbol
             id="textext-9927b3fe-8"
             overflow="visible">
            <path
               id="path3341"
               d="M 1.09375 -3.421875 L 1.09375 -0.75 C 1.09375 -0.3125 0.984375 -0.3125 0.3125 -0.3125 L 0.3125 0 C 0.671875 -0.015625 1.171875 -0.03125 1.453125 -0.03125 C 1.703125 -0.03125 2.21875 -0.015625 2.5625 0 L 2.5625 -0.3125 C 1.890625 -0.3125 1.78125 -0.3125 1.78125 -0.75 L 1.78125 -2.59375 C 1.78125 -3.625 2.5 -4.1875 3.125 -4.1875 C 3.765625 -4.1875 3.875 -3.65625 3.875 -3.078125 L 3.875 -0.75 C 3.875 -0.3125 3.765625 -0.3125 3.09375 -0.3125 L 3.09375 0 C 3.4375 -0.015625 3.953125 -0.03125 4.21875 -0.03125 C 4.46875 -0.03125 5 -0.015625 5.328125 0 L 5.328125 -0.3125 C 4.8125 -0.3125 4.5625 -0.3125 4.5625 -0.609375 L 4.5625 -2.515625 C 4.5625 -3.375 4.5625 -3.671875 4.25 -4.03125 C 4.109375 -4.203125 3.78125 -4.40625 3.203125 -4.40625 C 2.46875 -4.40625 2 -3.984375 1.71875 -3.359375 L 1.71875 -4.40625 L 0.3125 -4.296875 L 0.3125 -3.984375 C 1.015625 -3.984375 1.09375 -3.921875 1.09375 -3.421875 Z M 1.09375 -3.421875 "
               style="stroke:none;" />
          </symbol>
          <symbol
             id="textext-9927b3fe-9"
             overflow="visible">
            <path
               id="path3344"
               d=""
               style="stroke:none;" />
          </symbol>
          <symbol
             id="textext-9927b3fe-10"
             overflow="visible">
            <path
               id="path3347"
               d="M 3.59375 -2.21875 C 3.59375 -2.984375 3.5 -3.546875 3.1875 -4.03125 C 2.96875 -4.34375 2.53125 -4.625 1.984375 -4.625 C 0.359375 -4.625 0.359375 -2.71875 0.359375 -2.21875 C 0.359375 -1.71875 0.359375 0.140625 1.984375 0.140625 C 3.59375 0.140625 3.59375 -1.71875 3.59375 -2.21875 Z M 1.984375 -0.0625 C 1.65625 -0.0625 1.234375 -0.25 1.09375 -0.8125 C 1 -1.21875 1 -1.796875 1 -2.3125 C 1 -2.828125 1 -3.359375 1.09375 -3.734375 C 1.25 -4.28125 1.6875 -4.4375 1.984375 -4.4375 C 2.359375 -4.4375 2.71875 -4.203125 2.84375 -3.796875 C 2.953125 -3.421875 2.96875 -2.921875 2.96875 -2.3125 C 2.96875 -1.796875 2.96875 -1.28125 2.875 -0.84375 C 2.734375 -0.203125 2.265625 -0.0625 1.984375 -0.0625 Z M 1.984375 -0.0625 "
               style="stroke:none;" />
          </symbol>
        </g>
      </defs>
      <g
         id="textext-9927b3fe-11">
        <g
           id="g3350"
           style="fill:rgb(0%,0%,0%);fill-opacity:1;">
          <use
             id="use3352"
             y="134.765"
             x="223.432"
             xlink:href="#textext-9927b3fe-1" />
        </g>
        <g
           id="g3354"
           style="fill:rgb(0%,0%,0%);fill-opacity:1;">
          <use
             id="use3356"
             y="134.765"
             x="233.99"
             xlink:href="#textext-9927b3fe-5" />
        </g>
        <g
           id="g3358"
           style="fill:rgb(0%,0%,0%);fill-opacity:1;">
          <use
             id="use3360"
             y="134.765"
             x="244.506"
             xlink:href="#textext-9927b3fe-1" />
        </g>
        <g
           id="g3362"
           style="fill:rgb(0%,0%,0%);fill-opacity:1;">
          <use
             id="use3364"
             y="136.259"
             x="250.912"
             xlink:href="#textext-9927b3fe-10" />
        </g>
        <g
           id="g3366"
           style="fill:rgb(0%,0%,0%);fill-opacity:1;">
          <use
             id="use3368"
             y="134.765"
             x="257.042"
             xlink:href="#textext-9927b3fe-6" />
          <use
             id="use3370"
             y="134.765"
             x="260.971249"
             xlink:href="#textext-9927b3fe-7" />
          <use
             id="use3372"
             y="134.765"
             x="263.73886"
             xlink:href="#textext-9927b3fe-8" />
        </g>
        <g
           id="g3374"
           style="fill:rgb(0%,0%,0%);fill-opacity:1;">
          <use
             id="use3376"
             y="134.765"
             x="270.934"
             xlink:href="#textext-9927b3fe-2" />
        </g>
        <g
           id="g3378"
           style="fill:rgb(0%,0%,0%);fill-opacity:1;">
          <use
             id="use3380"
             y="134.765"
             x="277.494372"
             xlink:href="#textext-9927b3fe-3" />
        </g>
      </g>
    </g>
  </g>
</svg>
